# xmcd
#
# Track frame offsets: 
#        150
#        15137
#        27938
#        41698
#        55651
#        72855
#        86650
#        99285
#        116051
#        128697
#        140470
#        163585
#        179274
#        195284
#        206101
#        220879
#
# Disc length: 3149 seconds
#
# Revision: 0
# Processed by: cddbd v1.5.2PL0 Copyright (c) Steve Scherf et al.
# Submitted via: ExactAudioCopy v1.0b4
#
DISCID=d20c4b10
DTITLE=Kim Wilson - Blues And Boogie, Volume 1
DYEAR=2017
DGENRE=Blues
TTITLE0=Bonus Boogie
TTITLE1=No Love In My Heart
TTITLE2=Ninety-Nine
TTITLE3=Worried Life Blues
TTITLE4=Messed Up My Mind
TTITLE5=Teenage Beat
TTITLE6=Same Old Blues
TTITLE7=Searched All Over
TTITLE8=From The Bottom
TTITLE9=Look Whatcha Done
TTITLE10=Blue And Lonesome
TTITLE11=Sho Nuff I Do
TTITLE12=Learn To Treat Me Right
TTITLE13=Edgier
TTITLE14=Mean Old Frisco
TTITLE15=You're The One
EXTD=
EXTT0=
EXTT1=
EXTT2=
EXTT3=
EXTT4=
EXTT5=
EXTT6=
EXTT7=
EXTT8=
EXTT9=
EXTT10=
EXTT11=
EXTT12=
EXTT13=
EXTT14=
EXTT15=
PLAYORDER=
